<svg width="1280" height="256" fill="none" xmlns="http://www.w3.org/2000/svg">
    <g clip-path="url(#clip0)">
        <path fill="#0C7A5B" d="M0 0h1280v256H0z"/>
        <g clip-path="url(#clip1)">
            <path d="M1117.01 260.45c0-162.674-131.836-294.508-294.51-294.508-162.674 0-294.508 131.834-294.508 294.508h589.018z" fill="url(#paint0_linear)"/>
            <path fill-rule="evenodd" clip-rule="evenodd" d="M693.78 209.363c-18.974-16.111-31.013-40.141-31.013-66.983 0-48.51 39.326-87.836 87.836-87.836 48.511 0 87.837 39.326 87.837 87.836 0 48.511-39.326 87.837-87.837 87.837a88.04 88.04 0 01-21.272-2.593l-35.685 20.438.134-38.699z" fill="#005F3A"/>
            <path fill-rule="evenodd" clip-rule="evenodd" d="M729.331 227.624a88.04 88.04 0 0021.272 2.593c25.963 0 49.294-11.264 65.375-29.171L662.767 142.38c0 26.842 12.039 50.872 31.013 66.983l-.134 38.699 35.685-20.438z" fill="#005A34"/>
            <g clip-path="url(#clip2)" fill-rule="evenodd" clip-rule="evenodd">
                <path d="M947.819 117.265c19.233-16.875 31.374-41.636 31.374-69.233 0-50.851-41.223-92.074-92.073-92.074-50.851 0-92.074 41.223-92.074 92.074 0 50.85 41.223 92.073 92.074 92.073 7.648 0 15.079-.933 22.184-2.69l38.662 22.143-.147-42.293z" fill="#007353"/>
                <path d="M908.536 137.044a88.53 88.53 0 01-22.172 2.841c-25.962 0-49.294-11.264-65.374-29.172L977.945 50.8c0 26.069-12.438 49.846-31.474 66.266l.145 41.788-38.08-21.81z" fill="#007150"/>
                <path d="M902.605 7.123h-31.408v27.482h-27.482v31.408h27.482v28.464h31.408V66.013h28.464V34.605h-28.464V7.123z" fill="#005F3A"/>
            </g>
            <path fill-rule="evenodd" clip-rule="evenodd" d="M766.582 104.46h-31.408v27.483h-27.482v31.408h27.482v28.464h31.408v-28.464h28.464v-31.408h-28.464V104.46z" fill="#0C7A5B"/>
        </g>
    </g>
    <defs>
        <clipPath id="clip0">
            <path fill="#fff" d="M0 0h1280v256H0z"/>
        </clipPath>
        <clipPath id="clip1">
            <path fill="#fff" d="M523-69h599v329.45H523z"/>
        </clipPath>
        <clipPath id="clip2">
            <path fill="#fff" d="M795.046-44.042h184.692V164.36H795.046z"/>
        </clipPath>
        <linearGradient id="paint0_linear" x1="822.5" y1="-34.058" x2="822.5" y2="260.45" gradientUnits="userSpaceOnUse">
            <stop stop-color="#0A7454"/>
            <stop offset="1" stop-color="#0C7A5B"/>
        </linearGradient>
    </defs>
</svg>
